HIERARCHY
ROOT hip
{
	OFFSET 0.000000 0.000000 0.000000
	CHANNELS 6 Xposition Yposition Zposition Xrotation Yrotation Zrotation
	JOINT mSpine1
	{
		OFFSET 0.0000 3.3100 -0.0000
		CHANNELS 3 Xrotation Yrotation Zrotation
		JOINT mSpine2
		{
			OFFSET 0.0000 -3.3100 0.0000
			CHANNELS 3 Xrotation Yrotation Zrotation
			JOINT abdomen
			{
				OFFSET 0.0000 3.3100 -0.0000
				CHANNELS 3 Xrotation Yrotation Zrotation
				JOINT mSpine3
				{
					OFFSET 0.0000 8.0660 -0.6050
					CHANNELS 3 Xrotation Yrotation Zrotation
					JOINT mSpine4
					{
						OFFSET 0.0000 -8.0660 0.6050
						CHANNELS 3 Xrotation Yrotation Zrotation
						JOINT chest
						{
							OFFSET 0.0000 8.0660 -0.6050
							CHANNELS 3 Xrotation Yrotation Zrotation
							JOINT lCollar
							{
								OFFSET 2.8220 6.5116 -0.8157
								CHANNELS 3 Xrotation Yrotation Zrotation
								JOINT lShldr
								{
									OFFSET 3.1102 0.0000 0.0000
									CHANNELS 3 Xrotation Yrotation Zrotation
									JOINT lForeArm
									{
										OFFSET 10.9354 0.0000 0.0000
										CHANNELS 3 Xrotation Yrotation Zrotation
										JOINT lHand
										{
											OFFSET 9.5165 0.0000 0.0000
											CHANNELS 3 Xrotation Yrotation Zrotation
											JOINT mHandMiddle1Left
											{
												OFFSET 3.9764 0.5905 0.5118
												CHANNELS 3 Xrotation Yrotation Zrotation
												JOINT mHandMiddle2Left
												{
													OFFSET 1.5748 -0.2362 -0.0394
													CHANNELS 3 Xrotation Yrotation Zrotation
													JOINT mHandMiddle3Left
													{
														OFFSET 1.9291 -0.3150 -0.0394
														CHANNELS 3 Xrotation Yrotation Zrotation
														End Site
														{
															OFFSET 1.2992 -0.2362 -0.0787
														}
													}
												}
											}
											JOINT mHandIndex1Left
											{
												OFFSET 3.8189 0.5905 1.4961
												CHANNELS 3 Xrotation Yrotation Zrotation
												JOINT mHandIndex2Left
												{
													OFFSET 1.4173 -0.2362 0.6693
													CHANNELS 3 Xrotation Yrotation Zrotation
													JOINT mHandIndex3Left
													{
														OFFSET 1.2598 -0.2362 0.5512
														CHANNELS 3 Xrotation Yrotation Zrotation
														End Site
														{
															OFFSET 0.9843 -0.1575 0.4331
														}
													}
												}
											}
											JOINT mHandRing1Left
											{
												OFFSET 3.8976 0.3543 -0.3937
												CHANNELS 3 Xrotation Yrotation Zrotation
												JOINT mHandRing2Left
												{
													OFFSET 1.4961 -0.3150 -0.5118
													CHANNELS 3 Xrotation Yrotation Zrotation
													JOINT mHandRing3Left
													{
														OFFSET 1.5748 -0.3543 -0.5118
														CHANNELS 3 Xrotation Yrotation Zrotation
														End Site
														{
															OFFSET 1.1024 -0.2362 -0.3937
														}
													}
												}
											}
											JOINT mHandPinky1Left
											{
												OFFSET 3.7402 0.1181 -1.2205
												CHANNELS 3 Xrotation Yrotation Zrotation
												JOINT mHandPinky2Left
												{
													OFFSET 0.9842 -0.2362 -0.9449
													CHANNELS 3 Xrotation Yrotation Zrotation
													JOINT mHandPinky3Left
													{
														OFFSET 0.7087 -0.1575 -0.5906
														CHANNELS 3 Xrotation Yrotation Zrotation
														End Site
														{
															OFFSET 0.6299 -0.1575 -0.5118
														}
													}
												}
											}
											JOINT mHandThumb1Left
											{
												OFFSET 1.0236 0.1575 1.2205
												CHANNELS 3 Xrotation Yrotation Zrotation
												JOINT mHandThumb2Left
												{
													OFFSET 1.2598 -0.0394 1.1024
													CHANNELS 3 Xrotation Yrotation Zrotation
													JOINT mHandThumb3Left
													{
														OFFSET 1.2205 -0.0394 0.9055
														CHANNELS 3 Xrotation Yrotation Zrotation
														End Site
														{
															OFFSET 0.9843 0.0000 0.5906
														}
													}
												}
											}
										}
									}
								}
							}
							JOINT rCollar
							{
								OFFSET -2.8346 6.5116 -0.8157
								CHANNELS 3 Xrotation Yrotation Zrotation
								JOINT rShldr
								{
									OFFSET -3.1267 0.0000 0.0000
									CHANNELS 3 Xrotation Yrotation Zrotation
									JOINT rForeArm
									{
										OFFSET -10.9354 0.0000 0.0000
										CHANNELS 3 Xrotation Yrotation Zrotation
										JOINT rHand
										{
											OFFSET -9.5236 0.0000 0.0000
											CHANNELS 3 Xrotation Yrotation Zrotation
											JOINT mHandMiddle1Right
											{
												OFFSET -3.9764 0.5905 0.5118
												CHANNELS 3 Xrotation Yrotation Zrotation
												JOINT mHandMiddle2Right
												{
													OFFSET -1.5748 -0.2362 -0.0394
													CHANNELS 3 Xrotation Yrotation Zrotation
													JOINT mHandMiddle3Right
													{
														OFFSET -1.9291 -0.3150 -0.0394
														CHANNELS 3 Xrotation Yrotation Zrotation
														End Site
														{
															OFFSET -1.2992 -0.2362 -0.0787
														}
													}
												}
											}
											JOINT mHandIndex1Right
											{
												OFFSET -3.8189 0.5905 1.4961
												CHANNELS 3 Xrotation Yrotation Zrotation
												JOINT mHandIndex2Right
												{
													OFFSET -1.4173 -0.2362 0.6693
													CHANNELS 3 Xrotation Yrotation Zrotation
													JOINT mHandIndex3Right
													{
														OFFSET -1.2598 -0.2362 0.5512
														CHANNELS 3 Xrotation Yrotation Zrotation
														End Site
														{
															OFFSET -0.9843 -0.1575 0.4331
														}
													}
												}
											}
											JOINT mHandRing1Right
											{
												OFFSET -3.8976 0.3543 -0.3937
												CHANNELS 3 Xrotation Yrotation Zrotation
												JOINT mHandRing2Right
												{
													OFFSET -1.4961 -0.3150 -0.5118
													CHANNELS 3 Xrotation Yrotation Zrotation
													JOINT mHandRing3Right
													{
														OFFSET -1.5748 -0.3543 -0.5118
														CHANNELS 3 Xrotation Yrotation Zrotation
														End Site
														{
															OFFSET -1.1024 -0.2362 -0.3937
														}
													}
												}
											}
											JOINT mHandPinky1Right
											{
												OFFSET -3.7401 0.1181 -1.2205
												CHANNELS 3 Xrotation Yrotation Zrotation
												JOINT mHandPinky2Right
												{
													OFFSET -0.9842 -0.2362 -0.9449
													CHANNELS 3 Xrotation Yrotation Zrotation
													JOINT mHandPinky3Right
													{
														OFFSET -0.7087 -0.1575 -0.5906
														CHANNELS 3 Xrotation Yrotation Zrotation
														End Site
														{
															OFFSET -0.6299 -0.1575 -0.5118
														}
													}
												}
											}
											JOINT mHandThumb1Right
											{
												OFFSET -1.0236 0.1575 1.2205
												CHANNELS 3 Xrotation Yrotation Zrotation
												JOINT mHandThumb2Right
												{
													OFFSET -1.2598 -0.0394 1.1024
													CHANNELS 3 Xrotation Yrotation Zrotation
													JOINT mHandThumb3Right
													{
														OFFSET -1.2205 -0.0394 0.9055
														CHANNELS 3 Xrotation Yrotation Zrotation
														End Site
														{
															OFFSET -0.9843 0.0000 0.5906
														}
													}
												}
											}
										}
									}
								}
							}
						}
					}
				}
			}
		}
	}
}
MOTION
Frames: 3
Frame Time: 0.041667
0.0000 42.0084 0.0000 0.0000 0.0000 0.0000 0.0000 0.0000 0.0000 0.0000 0.0000 0.0000 0.0000 0.0000 0.0000 0.0000 0.0000 0.0000 0.0000 0.0000 0.0000 0.0000 0.0000 0.0000 0.0000 0.0000 0.0000 0.0000 0.0000 0.0000 0.0000 0.0000 0.0000 0.0000 0.0000 0.0000 0.0000 0.0000 0.0000 0.0000 0.0000 0.0000 0.0000 0.0000 0.0000 0.0000 0.0000 0.0000 0.0000 0.0000 0.0000 0.0000 0.0000 0.0000 0.0000 0.0000 0.0000 0.0000 0.0000 0.0000 0.0000 0.0000 0.0000 0.0000 0.0000 0.0000 0.0000 0.0000 0.0000 0.0000 0.0000 0.0000 0.0000 0.0000 0.0000 0.0000 0.0000 0.0000 0.0000 0.0000 0.0000 0.0000 0.0000 0.0000 0.0000 0.0000 0.0000 0.0000 0.0000 0.0000 0.0000 0.0000 0.0000 0.0000 0.0000 0.0000 0.0000 0.0000 0.0000 0.0000 0.0000 0.0000 0.0000 0.0000 0.0000 0.0000 0.0000 0.0000 0.0000 0.0000 0.0000 0.0000 0.0000 0.0000 0.0000 0.0000 0.0000 0.0000 0.0000 0.0000 0.0000 0.0000 0.0000 0.0000 0.0000 0.0000 0.0000 0.0000 0.0000 0.0000 0.0000 0.0000 0.0000 0.0000 0.0000 0.0000 0.0000 0.0000 
0.0000 42.0084 0.0000 0.0000 0.0000 0.0000 0.0000 0.0000 0.0000 0.0000 0.0000 0.0000 0.0000 0.0000 0.0000 0.0000 0.0000 0.0000 0.0000 0.0000 0.0000 0.0000 0.0000 0.0000 -0.4466 -6.5179 -3.9279 -13.2089 -26.5674 -84.4277 -6.9866 -22.3920 -14.4944 -15.1898 1.9379 20.2320 -0.1497 -0.4258 -2.9692 -0.1489 -0.4642 -2.9636 -0.2818 -0.4899 -2.9503 4.9234 19.0784 -3.2550 -0.2105 0.1514 0.5449 -0.2200 0.1306 0.5466 -3.2751 -11.9246 -1.9300 -1.4127 -0.5723 -3.8641 -1.5073 -0.5193 -3.8354 -9.0397 -33.7870 -2.6091 -4.8804 -0.3435 -5.6931 -4.8327 -0.4306 -5.7313 4.2497 5.2241 -4.6168 3.9037 5.2301 -4.9021 3.1786 5.5592 -5.0419 -0.5735 6.9130 4.7536 -13.5934 27.7211 85.4627 -4.1109 20.8273 12.3993 -10.3582 -4.7226 -19.0316 -0.2851 0.7602 5.3431 -0.2850 0.8292 5.3331 -0.5249 0.8706 5.3101 5.9069 -18.9874 4.9120 0.3303 0.2439 0.8620 0.3458 0.2111 0.8647 -3.2813 12.1168 1.8509 -1.3955 0.5660 3.8175 -1.4890 0.5137 3.7893 -9.5706 34.2119 3.0766 -5.1605 0.3485 6.0196 -5.1103 0.4406 6.0603 3.2133 -4.0302 3.4971 2.9462 -4.0340 3.7181 2.3875 -4.2811 3.8290 
0.0000 42.0084 0.0000 0.0000 0.0000 0.0000 0.0000 0.0000 0.0000 0.0000 0.0000 0.0000 0.0000 0.0000 0.0000 0.0000 0.0000 0.0000 0.0000 0.0000 0.0000 0.0000 0.0000 0.0000 -0.4466 -6.5179 -3.9279 -13.2089 -26.5674 -84.4277 -6.9866 -22.3920 -14.4944 -15.1898 1.9379 20.2320 -0.1497 -0.4258 -2.9692 -0.1489 -0.4642 -2.9636 -0.2818 -0.4899 -2.9503 4.9234 19.0784 -3.2550 -0.2105 0.1514 0.5449 -0.2200 0.1306 0.5466 -3.2751 -11.9246 -1.9300 -1.4127 -0.5723 -3.8641 -1.5073 -0.5193 -3.8354 -9.0397 -33.7870 -2.6091 -4.8804 -0.3435 -5.6931 -4.8327 -0.4306 -5.7313 4.2497 5.2241 -4.6168 3.9037 5.2301 -4.9021 3.1786 5.5592 -5.0419 -0.5735 6.9130 4.7536 -13.5934 27.7211 85.4627 -4.1109 20.8273 12.3993 -10.3582 -4.7226 -19.0316 -0.2851 0.7602 5.3431 -0.2850 0.8292 5.3331 -0.5249 0.8706 5.3101 5.9069 -18.9874 4.9120 0.3303 0.2439 0.8620 0.3458 0.2111 0.8647 -3.2813 12.1168 1.8509 -1.3955 0.5660 3.8175 -1.4890 0.5137 3.7893 -9.5706 34.2119 3.0766 -5.1605 0.3485 6.0196 -5.1103 0.4406 6.0603 3.2133 -4.0302 3.4971 2.9462 -4.0340 3.7181 2.3875 -4.2811 3.8290 
